<svg t="1682930434214" class="icon" viewBox="0 0 1024 1024" version="1.1" xmlns="http://www.w3.org/2000/svg" p-id="2881" id="mx_n_1682930434215" width="48" height="48"><path d="M804.89 692.15H312.47c-13.04 0-24.4-8.88-27.56-21.51L167.19 199.73h-44.11c-15.68 0-28.41-12.72-28.41-28.41s12.72-28.41 28.41-28.41h66.29c13.04 0 24.4 8.88 27.56 21.51l23.03 92.12h659.63a28.406 28.406 0 0 1 27.56 35.31l-94.7 378.78c-3.16 12.64-14.52 21.52-27.56 21.52z m-470.24-56.82h448.07l80.49-321.97H254.16l80.49 321.97zM312.47 881.54c-47 0-85.23-38.23-85.23-85.23s38.23-85.23 85.23-85.23 85.23 38.23 85.23 85.23-38.23 85.23-85.23 85.23z m0-113.64c-15.67 0-28.41 12.74-28.41 28.41s12.74 28.41 28.41 28.41 28.41-12.74 28.41-28.41c0-15.66-12.74-28.41-28.41-28.41zM804.89 881.54c-47 0-85.23-38.23-85.23-85.23s38.23-85.23 85.23-85.23 85.23 38.23 85.23 85.23-38.23 85.23-85.23 85.23z m0-113.64c-15.67 0-28.41 12.74-28.41 28.41s12.74 28.41 28.41 28.41 28.41-12.74 28.41-28.41c0-15.66-12.74-28.41-28.41-28.41z" fill="#707070" p-id="2882"></path></svg>